<svg width="800" height="806" viewBox="0 0 800 806" fill="none" xmlns="http://www.w3.org/2000/svg">
<g clip-path="url(#clip0_145_11)">
<path d="M749.367 0H50.6329C22.6691 0 0 22.6691 0 50.6329V754.43C0 782.394 22.6691 805.063 50.6329 805.063H749.367C777.331 805.063 800 782.394 800 754.43V50.6329C800 22.6691 777.331 0 749.367 0Z" fill="url(#paint0_linear_145_11)"/>
<path d="M418.117 525.311C394.169 524.4 372.038 519.671 351.726 511.129C331.424 502.247 313.773 489.921 298.772 474.148C283.77 458.376 272.414 439.702 264.702 418.128C257.001 396.215 253.609 371.765 254.524 344.776C255.439 317.787 260.648 293.665 270.15 272.408C279.652 251.151 292.424 233.059 308.467 218.132C324.521 202.867 342.81 191.403 363.334 183.74C383.859 176.077 405.589 172.683 428.527 173.557C445.392 174.2 459.856 175.933 471.919 178.757C484.331 181.257 494.044 183.654 501.059 185.948L507.534 278.92L472.62 277.589L452.769 220.59C450.419 220.163 447.732 219.723 444.708 219.269C442.032 218.492 437.153 217.968 430.069 217.698C407.132 216.824 386.531 221.782 368.264 232.571C350.335 243.373 335.98 258.364 325.197 277.545C314.763 296.402 308.791 318.131 307.281 342.733C306.761 368.048 310.879 391.006 319.637 411.607C328.407 431.871 341.356 448.41 358.484 461.223C375.623 473.699 396.336 480.4 420.623 481.325C433.441 481.813 446.327 480.277 459.282 476.717C472.248 472.82 483.417 467.166 492.787 459.753L508.177 498.849C502.262 504.028 494.333 508.795 484.39 513.144C474.797 517.17 464.22 520.314 452.66 522.572C441.1 524.835 429.586 525.747 418.117 525.311Z" fill="white"/>
<path d="M438.712 606C421.509 605.342 404.707 602.846 388.305 598.506C372.24 594.177 357.727 588.896 344.767 582.658L350.299 494.198L386.66 497.61L393.459 551.073C398.788 553.301 405.465 555.585 413.492 557.914C421.519 560.248 429.917 561.58 438.687 561.914C449.818 562.339 460.332 561.053 470.228 558.051C480.473 554.724 488.758 549.468 495.081 542.278C501.741 535.099 505.266 525.777 505.655 514.304C505.964 505.196 504.372 497.367 500.879 490.815C497.386 484.264 491.858 477.973 484.294 471.942C476.731 465.911 466.474 459.609 453.525 453.035C440.587 446.125 427.981 439.395 415.707 432.847C403.432 426.299 392.367 418.952 382.511 410.808C372.992 402.676 365.38 393.096 359.674 382.069C354.318 370.718 351.908 357.114 352.446 341.259C353.075 322.704 358.51 306.866 368.749 293.744C379.338 280.298 393.19 270.185 410.307 263.406C427.762 256.639 446.44 253.635 466.341 254.394C482.194 254.998 497.49 257.101 512.228 260.703C526.977 263.967 540.689 268.036 553.357 272.91L557.473 360.725L522.056 359.375L500.6 304.849C495.26 302.956 489.397 301.55 483.011 300.631C476.636 299.375 470.245 298.625 463.836 298.381C453.042 297.97 443.197 299.452 434.301 302.829C425.754 305.881 418.836 310.685 413.548 317.239C408.608 323.469 405.99 330.97 405.692 339.741C405.395 348.512 407.499 356.193 412.004 362.782C416.508 369.372 422.391 375.17 429.652 380.176C437.25 385.194 445.534 389.901 454.504 394.297C463.485 398.354 472.124 402.569 480.419 406.938C500.337 417.155 516.025 427.549 527.489 438.119C539.301 448.366 547.711 459.327 552.719 471.003C557.727 482.678 559.99 495.601 559.509 509.772C558.927 526.977 555.043 541.858 547.863 554.42C541.033 566.658 531.909 576.785 520.491 584.795C509.084 592.466 496.229 598.056 481.925 601.565C467.62 605.073 453.216 606.552 438.712 606Z" fill="white"/>
</g>
<defs>
<linearGradient id="paint0_linear_145_11" x1="400" y1="0" x2="400" y2="805.063" gradientUnits="userSpaceOnUse">
<stop offset="0.1875" stop-color="#71ADF3"/>
<stop offset="0.59375" stop-color="#4A9DFF"/>
<stop offset="1" stop-color="#308DE2"/>
</linearGradient>
<clipPath id="clip0_145_11">
<rect width="800" height="805.063" fill="white"/>
</clipPath>
</defs>
</svg>
